<svg xmlns="http://www.w3.org/2000/svg" xmlns:xlink="http://www.w3.org/1999/xlink" viewBox="0 0 430 430" width="430" height="430" style="width: 100%; height: 100%; transform: translate3d(0px, 0px, 0px); content-visibility: visible;" preserveAspectRatio="xMidYMid meet"><defs><clipPath id="__lottie_element_496"><rect width="430" height="430" x="0" y="0"/></clipPath><clipPath id="__lottie_element_498"><path d="M0,0 L430,0 L430,430 L0,430z"/></clipPath></defs><g clip-path="url(#__lottie_element_496)"><g clip-path="url(#__lottie_element_498)" style="display: block;" transform="matrix(1,0,0,1,0,0)" opacity="1"><g style="display: block;" transform="matrix(1,0,0,1,215,305)" opacity="1"><g opacity="1" transform="matrix(1,0,0,1,0,0)"><path stroke-linecap="butt" stroke-linejoin="round" fill-opacity="0" class="primary" stroke="rgb(0,0,0)" stroke-opacity="1" stroke-width="12" d=" M-45,-70 C-108.51300048828125,-70 -160,-18.51300048828125 -160,45 C-160,45 -160,70 -160,70 C-160,70 160,70 160,70 C160,70 160,45 160,45 C160,-18.51300048828125 108.51300048828125,-70 45,-70 C45,-70 -45,-70 -45,-70z"/></g></g><g style="display: block;" transform="matrix(1,0,0,1,215,125)" opacity="1"><g opacity="1" transform="matrix(1,0,0,1,0,0)"><path stroke-linecap="round" stroke-linejoin="round" fill-opacity="0" class="secondary" stroke="rgb(0,0,0)" stroke-opacity="1" stroke-width="12" d=" M0,75 C41.42100143432617,75 75,41.42100143432617 75,0 C75,-41.42100143432617 41.42100143432617,-75 0,-75 C-41.42100143432617,-75 -75,-41.42100143432617 -75,0 C-75,41.42100143432617 -41.42100143432617,75 0,75z"/></g></g></g></g></svg>