<svg xmlns="http://www.w3.org/2000/svg" xmlns:xlink="http://www.w3.org/1999/xlink" viewBox="0 0 430 430" width="430" height="430" style="width: 100%; height: 100%; transform: translate3d(0px, 0px, 0px); content-visibility: visible;" preserveAspectRatio="xMidYMid meet"><defs><clipPath id="__lottie_element_65"><rect width="430" height="430" x="0" y="0"/></clipPath><clipPath id="__lottie_element_67"><path d="M0,0 L430,0 L430,430 L0,430z"/></clipPath></defs><g clip-path="url(#__lottie_element_65)"><g clip-path="url(#__lottie_element_67)" style="display: block;" transform="matrix(1,0,0,1,0,0)" opacity="1"><g style="display: block;" transform="matrix(3.700000047683716,0,0,3.700000047683716,205.7498016357422,214.99839782714844)" opacity="1"><g opacity="1" transform="matrix(1,0,0,1,0,0)"><path stroke-linecap="round" stroke-linejoin="round" fill-opacity="0" class="primary" stroke="rgb(0,0,0)" stroke-opacity="1" stroke-width="3.5" d=" M-24,17 M-23.625,17.125 C-23.625,17.125 -25.916000366210938,17.41900062561035 -26.944000244140625,18.694000244140625 C-28.554000854492188,20.690000534057617 -28.520000457763672,24 -22.875,24 C-13.625,24 24.5,24 24.5,24"/></g><g opacity="1" transform="matrix(1,0,0,1,-19.375,31.5)"><path stroke-linecap="butt" stroke-linejoin="miter" fill-opacity="0" stroke-miterlimit="4" class="secondary" stroke="rgb(0,0,0)" stroke-opacity="1" stroke-width="3.5" d=" M0,-7.5 C4.139249801635742,-7.5 7.5,-4.139249801635742 7.5,0 C7.5,4.139249801635742 4.139249801635742,7.5 0,7.5 C-4.139249801635742,7.5 -7.5,4.139249801635742 -7.5,0 C-7.5,-4.139249801635742 -4.139249801635742,-7.5 0,-7.5z"/></g><g opacity="1" transform="matrix(1,0,0,1,25,31.5)"><path stroke-linecap="butt" stroke-linejoin="miter" fill-opacity="0" stroke-miterlimit="4" class="secondary" stroke="rgb(0,0,0)" stroke-opacity="1" stroke-width="3.5" d=" M0,-7.5 C4.139249801635742,-7.5 7.5,-4.139249801635742 7.5,0 C7.5,4.139249801635742 4.139249801635742,7.5 0,7.5 C-4.139249801635742,7.5 -7.5,4.139249801635742 -7.5,0 C-7.5,-4.139249801635742 -4.139249801635742,-7.5 0,-7.5z"/></g></g><g style="display: block;" transform="matrix(3.700000047683716,0,0,3.700000047683716,205.7498016357422,214.99839782714844)" opacity="1"><g opacity="1" transform="matrix(1,0,0,1,0,0)"><path stroke-linecap="round" stroke-linejoin="round" fill-opacity="0" class="primary" stroke="rgb(0,0,0)" stroke-opacity="1" stroke-width="3.5" d=" M-47,-38 C-47,-38 -42.73899841308594,-38 -40.608001708984375,-38 C-37.22999954223633,-38 -32.770999908447266,-35.1349983215332 -31.548999786376953,-27.884000778198242 C-29.02899932861328,-12.92300033569336 -24,17 -24,17 M-30.93899917602539,-28.027000427246094 C-30.93899917602539,-28.027000427246094 45.5,-28 45.5,-28 C45.5,-28 46.75,-28 46.75,-28 C46.75,-28 46.26300048828125,-26.319000244140625 46.26300048828125,-26.319000244140625 C46.26300048828125,-26.319000244140625 41.71099853515625,-10.618000030517578 39.435001373291016,-2.7679998874664307 C38.165000915527344,1.6130000352859497 36.79199981689453,5.392000198364258 33.733001708984375,7.942999839782715 C30.408000946044922,10.715999603271484 26.398000717163086,11.425999641418457 21.78499984741211,11.95199966430664 C6.6479997634887695,13.675999641418457 -23.625,17.125 -23.625,17.125 C-23.625,17.125 -25.916000366210938,17.41900062561035 -26.944000244140625,18.694000244140625"/></g></g></g></g></svg>